<?xml version="1.0" standalone="no"?>
<!DOCTYPE svg PUBLIC "-//W3C//DTD SVG 20010904//EN"
 "http://www.w3.org/TR/2001/REC-SVG-20010904/DTD/svg10.dtd">
<svg version="1.0" xmlns="http://www.w3.org/2000/svg"
 width="512.000000pt" height="512.000000pt" viewBox="0 0 512.000000 512.000000"
 preserveAspectRatio="xMidYMid meet">

<g transform="translate(0.000000,512.000000) scale(0.100000,-0.100000)"
fill="#000000" stroke="none">
<path d="M343 4415 c-41 -17 -48 -30 -128 -217 -37 -87 -71 -158 -76 -158 -18
0 -91 -75 -112 -114 -17 -34 -22 -63 -25 -162 -5 -138 8 -183 59 -210 29 -14
29 -15 29 -112 0 -71 4 -104 15 -118 12 -16 14 -170 15 -1140 l0 -1121 -51 -5
c-28 -3 -55 -12 -60 -19 -5 -8 -9 -85 -9 -171 0 -145 1 -158 19 -168 14 -7
823 -10 2545 -10 2282 0 2526 2 2540 16 13 13 16 42 16 167 0 84 -4 158 -9
166 -5 8 -32 16 -65 19 l-56 4 0 1115 c0 1100 0 1115 20 1140 17 22 20 41 20
124 0 98 0 99 29 113 51 27 64 72 59 210 -3 99 -8 128 -25 162 -21 39 -94 114
-112 114 -5 0 -39 71 -76 158 -80 186 -89 201 -132 218 -49 21 -4383 20 -4430
-1z m4409 -82 c13 -16 118 -253 118 -267 0 -3 -1039 -6 -2310 -6 -1270 0
-2310 3 -2310 6 0 14 105 251 118 267 14 16 131 17 2192 17 2061 0 2178 -1
2192 -17z m217 -382 c30 -22 70 -88 71 -118 0 -10 -503 -13 -2480 -13 -1977 0
-2480 3 -2480 13 1 47 59 121 110 140 8 3 1079 5 2380 4 l2365 -2 34 -24z m71
-259 c0 -26 -5 -53 -12 -60 -17 -17 -4919 -17 -4936 0 -7 7 -12 34 -12 60 l0
48 2480 0 2480 0 0 -48z m-90 -242 l0 -80 -2390 0 -2390 0 0 80 0 80 2390 0
2390 0 0 -80z m-40 -1275 l0 -1115 -100 0 -100 0 0 600 c0 582 -1 600 -19 610
-26 13 -336 13 -362 0 -18 -10 -19 -28 -19 -610 l0 -600 -80 0 -80 0 -2 596
c-3 576 -4 596 -22 610 -24 17 -335 20 -367 4 -18 -10 -19 -28 -19 -610 l0
-600 -205 0 -205 0 0 88 c0 96 -7 112 -52 112 l-28 0 0 325 0 325 48 0 c26 0
53 5 60 12 8 8 12 61 12 175 0 150 -1 163 -19 173 -27 14 -1555 14 -1582 0
-18 -10 -19 -23 -19 -173 0 -114 4 -167 12 -175 7 -7 34 -12 60 -12 l48 0 0
-325 0 -325 -28 0 c-45 0 -52 -16 -52 -112 l0 -88 -205 0 -205 0 0 600 c0 582
-1 600 -19 610 -32 16 -343 13 -367 -4 -18 -14 -19 -34 -22 -610 l-2 -596 -80
0 -80 0 0 600 c0 582 -1 600 -19 610 -11 6 -89 10 -181 10 -92 0 -170 -4 -181
-10 -18 -10 -19 -28 -19 -610 l0 -600 -105 0 -105 0 0 1115 0 1115 2355 0
2355 0 0 -1115z m-4180 -550 l0 -565 -120 0 -120 0 0 565 0 565 120 0 120 0 0
-565z m570 0 l0 -565 -120 0 -120 0 0 565 0 565 120 0 120 0 0 -565z m2760 0
l0 -565 -120 0 -120 0 0 565 0 565 120 0 120 0 0 -565z m570 0 l0 -565 -120 0
-120 0 0 565 0 565 120 0 120 0 0 -565z m-2110 -100 l0 -265 -140 0 -140 0 0
175 c0 200 5 220 68 277 39 35 104 61 177 71 17 2 31 5 33 6 1 0 2 -118 2
-264z m218 225 c57 -25 109 -74 128 -117 10 -23 14 -80 14 -203 l0 -170 -140
0 -140 0 0 261 0 262 46 -7 c25 -3 67 -15 92 -26z m2302 -880 l0 -100 -2480 0
-2480 0 0 100 0 100 2480 0 2480 0 0 -100z"/>
<path d="M1476 3154 c-14 -13 -16 -59 -16 -345 0 -209 4 -337 10 -350 10 -19
33 -19 1090 -19 1057 0 1080 0 1090 19 6 13 10 140 10 346 0 206 -4 333 -10
346 -10 19 -33 19 -1085 19 -963 0 -1075 -2 -1089 -16z m2104 -349 l0 -285
-1020 0 -1020 0 0 285 0 285 1020 0 1020 0 0 -285z"/>
<path d="M1647 2998 c-15 -8 -17 -31 -17 -191 0 -183 4 -207 36 -207 33 0 44
31 45 123 0 87 1 91 16 70 21 -31 57 -29 82 3 l20 26 3 -103 c3 -84 6 -104 21
-113 12 -8 22 -8 35 0 15 10 17 32 20 180 3 183 0 209 -23 218 -26 10 -44 -4
-81 -65 l-36 -59 -38 58 c-41 63 -57 75 -83 60z"/>
<path d="M1966 2994 c-13 -12 -16 -39 -16 -132 0 -64 5 -134 10 -154 12 -40
66 -94 106 -104 42 -11 101 13 131 53 27 35 28 40 31 184 3 140 2 148 -17 158
-17 9 -24 8 -41 -9 -18 -18 -20 -33 -20 -145 0 -112 -2 -127 -20 -145 -25 -25
-41 -25 -71 -1 -23 18 -24 26 -27 153 -3 109 -6 135 -19 146 -22 16 -28 15
-47 -4z"/>
<path d="M2365 2995 c-54 -19 -85 -59 -85 -111 0 -63 33 -91 150 -126 53 -15
61 -43 19 -67 -39 -21 -76 -8 -94 35 -12 30 -19 35 -42 32 -24 -3 -28 -8 -31
-39 -5 -59 62 -119 134 -119 44 0 103 31 124 65 26 42 25 74 -3 116 -17 26
-36 38 -82 52 -79 24 -89 30 -93 54 -2 14 5 24 26 32 40 17 80 0 93 -39 9 -24
17 -30 39 -30 33 0 45 23 34 64 -7 30 -67 86 -92 86 -9 0 -26 2 -37 5 -11 3
-38 -2 -60 -10z"/>
<path d="M2616 2994 c-13 -13 -16 -45 -16 -189 0 -144 3 -176 16 -189 12 -12
37 -16 108 -16 97 0 116 7 116 46 0 28 -17 34 -96 34 l-64 0 0 40 0 40 63 0
c73 0 101 15 95 51 -3 23 -7 24 -80 27 l-78 3 0 44 0 44 78 3 c73 3 77 4 80
27 6 40 -21 51 -119 51 -66 0 -91 -4 -103 -16z"/>
<path d="M2905 2996 c-14 -10 -16 -30 -13 -157 3 -141 4 -147 31 -182 30 -40
89 -64 131 -53 40 10 94 64 106 104 5 20 10 90 10 154 0 93 -3 120 -16 132
-19 19 -25 20 -47 4 -13 -11 -16 -37 -19 -146 -3 -127 -4 -135 -27 -153 -30
-24 -46 -24 -71 1 -18 18 -20 33 -20 141 0 66 -4 128 -10 138 -13 25 -35 32
-55 17z"/>
<path d="M3225 2994 c-13 -14 -15 -42 -13 -196 3 -160 5 -182 21 -192 12 -8
22 -8 35 0 14 9 17 29 20 113 l3 103 20 -26 c25 -32 61 -34 82 -3 15 21 16 17
16 -70 1 -92 12 -123 45 -123 32 0 36 24 36 207 0 164 -2 183 -17 191 -28 14
-42 4 -83 -59 l-38 -59 -36 59 c-30 49 -52 71 -71 71 -2 0 -11 -7 -20 -16z"/>
<path d="M422 3078 c-17 -17 -17 -529 0 -546 8 -8 64 -12 188 -12 124 0 180 4
188 12 17 17 17 529 0 546 -17 17 -359 17 -376 0z"/>
<path d="M989 3073 c-21 -25 -20 -530 1 -543 23 -15 363 -13 378 2 17 17 17
529 0 546 -8 8 -65 12 -189 12 -152 0 -178 -2 -190 -17z"/>
<path d="M3752 3078 c-17 -17 -17 -529 0 -546 15 -15 355 -17 378 -2 21 13 22
518 1 543 -12 15 -38 17 -190 17 -124 0 -181 -4 -189 -12z"/>
<path d="M4322 3078 c-17 -17 -17 -529 0 -546 8 -8 64 -12 188 -12 124 0 180
4 188 12 17 17 17 529 0 546 -17 17 -359 17 -376 0z"/>
</g>
</svg>
